<svg width="64" height="64" viewBox="0 0 64 64" xmlns="http://www.w3.org/2000/svg">
  <defs>
    <linearGradient id="bg" x1="0" y1="0" x2="1" y2="1">
      <stop offset="0%" stop-color="#0F766E"/>
      <stop offset="100%" stop-color="#14B8A6"/>
    </linearGradient>
    <linearGradient id="trophy" x1="0" y1="0" x2="1" y2="1">
      <stop offset="0%" stop-color="#CA8A04"/>
      <stop offset="50%" stop-color="#EAB308"/>
      <stop offset="100%" stop-color="#FBBF24"/>
    </linearGradient>
  </defs>
  <rect width="64" height="64" rx="16" fill="url(#bg)"/>
  <!-- Ascending bars -->
  <rect x="6" y="44" width="9" height="14" rx="2.5" fill="#fff" opacity=".15"/>
  <rect x="17" y="36" width="9" height="22" rx="2.5" fill="#fff" opacity=".3"/>
  <rect x="28" y="28" width="9" height="30" rx="2.5" fill="#fff" opacity=".5"/>
  <rect x="39" y="18" width="9" height="40" rx="2.5" fill="#fff" opacity=".8"/>
  <!-- Trophy cup -->
  <path d="M37 14L50 14L48.5 6L38.5 6Z" fill="url(#trophy)"/>
  <!-- Trophy rim -->
  <rect x="36" y="4" width="15" height="2.5" rx="1.2" fill="url(#trophy)"/>
  <!-- Left handle -->
  <path d="M38 10C36 10 34.5 12 34.5 14" fill="none" stroke="url(#trophy)" stroke-width="1.8" stroke-linecap="round"/>
  <!-- Right handle -->
  <path d="M49 10C51 10 52.5 12 52.5 14" fill="none" stroke="url(#trophy)" stroke-width="1.8" stroke-linecap="round"/>
  <!-- Stem -->
  <rect x="41.5" y="14" width="4" height="2.5" rx="1" fill="url(#trophy)" opacity=".7"/>
  <!-- Base -->
  <rect x="40" y="16" width="7" height="1.5" rx=".8" fill="url(#trophy)" opacity=".5"/>
  <!-- Star on cup -->
  <path d="M43.5 7.5L44.5 10H47L45 11.5L46 14L43.5 12.5L41 14L42 11.5L40 10H42.5Z" fill="#fff" opacity=".85"/>
</svg>
